name rise38.3101peak57.3503fall81.6963.mot
datacolumns 19
datarows 27
range 23.77324700000000 23.81658000000000
endheader
time	ground_force1_vx	ground_force1_vy	ground_force1_vz	ground_force1_px	ground_force1_py	ground_force1_pz	ground_force2_vx	ground_force2_vy	ground_force2_vz	ground_force2_px	ground_force2_py	ground_force2_pz	ground_torque1_x	ground_torque1_y	ground_torque1_z	ground_torque2_x	ground_torque2_y	ground_torque2_z	
23.77324700000000	54.74202700000000	739.58891200000005	54.19651700000000	0.34768600000000	0.00000000000000	0.10187700000000	0.00000000000000	0.00000000000000	0.00000000000000	0.00000000000000	0.00000000000000	0.00000000000000	0.00000000000000	24.07344700000000	0.00000000000000	0.00000000000000	0.00000000000000	0.00000000000000	
23.77493400000000	53.95784500000000	741.23398299999997	54.27527100000000	0.34616000000000	0.00000000000000	0.10192800000000	0.00000000000000	0.00000000000000	0.00000000000000	0.00000000000000	0.00000000000000	0.00000000000000	0.00000000000000	24.10681300000000	0.00000000000000	0.00000000000000	0.00000000000000	0.00000000000000	
23.77658100000000	53.18400100000000	742.82188199999996	54.34946400000000	0.34466600000000	0.00000000000000	0.10197500000000	0.00000000000000	0.00000000000000	0.00000000000000	0.00000000000000	0.00000000000000	0.00000000000000	0.00000000000000	24.13952600000000	0.00000000000000	0.00000000000000	0.00000000000000	0.00000000000000	
23.77824700000000	52.42083900000000	744.35128699999996	54.41916900000000	0.34320600000000	0.00000000000000	0.10201700000000	0.00000000000000	0.00000000000000	0.00000000000000	0.00000000000000	0.00000000000000	0.00000000000000	0.00000000000000	24.17173200000000	0.00000000000000	0.00000000000000	0.00000000000000	0.00000000000000	
23.77991200000000	51.66860600000000	745.82078600000000	54.48440600000000	0.34178100000000	0.00000000000000	0.10205500000000	0.00000000000000	0.00000000000000	0.00000000000000	0.00000000000000	0.00000000000000	0.00000000000000	0.00000000000000	24.20353700000000	0.00000000000000	0.00000000000000	0.00000000000000	0.00000000000000	
23.78157900000000	50.92745700000000	747.22889499999997	54.54514200000000	0.34039100000000	0.00000000000000	0.10208800000000	0.00000000000000	0.00000000000000	0.00000000000000	0.00000000000000	0.00000000000000	0.00000000000000	0.00000000000000	24.23500800000000	0.00000000000000	0.00000000000000	0.00000000000000	0.00000000000000	
23.78324400000000	50.19745700000000	748.57407499999999	54.60129600000000	0.33903600000000	0.00000000000000	0.10211600000000	0.00000000000000	0.00000000000000	0.00000000000000	0.00000000000000	0.00000000000000	0.00000000000000	0.00000000000000	24.26617500000000	0.00000000000000	0.00000000000000	0.00000000000000	0.00000000000000	
23.78492600000000	49.47858800000000	749.85475199999996	54.65274400000000	0.33771700000000	0.00000000000000	0.10214000000000	0.00000000000000	0.00000000000000	0.00000000000000	0.00000000000000	0.00000000000000	0.00000000000000	0.00000000000000	24.29703400000000	0.00000000000000	0.00000000000000	0.00000000000000	0.00000000000000	
23.78658200000000	48.77075100000000	751.06932900000004	54.69931800000000	0.33643400000000	0.00000000000000	0.10215900000000	0.00000000000000	0.00000000000000	0.00000000000000	0.00000000000000	0.00000000000000	0.00000000000000	0.00000000000000	24.32755000000000	0.00000000000000	0.00000000000000	0.00000000000000	0.00000000000000	
23.78824500000000	48.07376800000000	752.21621200000004	54.74081900000000	0.33518600000000	0.00000000000000	0.10217300000000	0.00000000000000	0.00000000000000	0.00000000000000	0.00000000000000	0.00000000000000	0.00000000000000	0.00000000000000	24.35765900000000	0.00000000000000	0.00000000000000	0.00000000000000	0.00000000000000	
23.78993200000000	47.38739300000000	753.29381799999999	54.77701300000000	0.33397400000000	0.00000000000000	0.10218200000000	0.00000000000000	0.00000000000000	0.00000000000000	0.00000000000000	0.00000000000000	0.00000000000000	0.00000000000000	24.38726900000000	0.00000000000000	0.00000000000000	0.00000000000000	0.00000000000000	
23.79157800000000	46.71131000000000	754.30060000000003	54.80764000000000	0.33279600000000	0.00000000000000	0.10218700000000	0.00000000000000	0.00000000000000	0.00000000000000	0.00000000000000	0.00000000000000	0.00000000000000	0.00000000000000	24.41626500000000	0.00000000000000	0.00000000000000	0.00000000000000	0.00000000000000	
23.79324400000000	46.04514400000000	755.23505599999999	54.83241800000000	0.33165300000000	0.00000000000000	0.10218700000000	0.00000000000000	0.00000000000000	0.00000000000000	0.00000000000000	0.00000000000000	0.00000000000000	0.00000000000000	24.44451100000000	0.00000000000000	0.00000000000000	0.00000000000000	0.00000000000000	
23.79491600000000	45.38846100000000	756.09575099999995	54.85104700000000	0.33054300000000	0.00000000000000	0.10218200000000	0.00000000000000	0.00000000000000	0.00000000000000	0.00000000000000	0.00000000000000	0.00000000000000	0.00000000000000	24.47185200000000	0.00000000000000	0.00000000000000	0.00000000000000	0.00000000000000	
23.79657900000000	44.74077900000000	756.88132900000005	54.86321500000000	0.32946600000000	0.00000000000000	0.10217300000000	0.00000000000000	0.00000000000000	0.00000000000000	0.00000000000000	0.00000000000000	0.00000000000000	0.00000000000000	24.49811800000000	0.00000000000000	0.00000000000000	0.00000000000000	0.00000000000000	
23.79824600000000	44.10157000000000	757.59052599999995	54.86860100000000	0.32842100000000	0.00000000000000	0.10215900000000	0.00000000000000	0.00000000000000	0.00000000000000	0.00000000000000	0.00000000000000	0.00000000000000	0.00000000000000	24.52312500000000	0.00000000000000	0.00000000000000	0.00000000000000	0.00000000000000	
23.79991100000000	43.47026400000000	758.22218899999996	54.86688000000000	0.32740600000000	0.00000000000000	0.10214000000000	0.00000000000000	0.00000000000000	0.00000000000000	0.00000000000000	0.00000000000000	0.00000000000000	0.00000000000000	24.54668000000000	0.00000000000000	0.00000000000000	0.00000000000000	0.00000000000000	
23.80157700000000	42.84625900000000	758.77528400000006	54.85773100000000	0.32642000000000	0.00000000000000	0.10211700000000	0.00000000000000	0.00000000000000	0.00000000000000	0.00000000000000	0.00000000000000	0.00000000000000	0.00000000000000	24.56858200000000	0.00000000000000	0.00000000000000	0.00000000000000	0.00000000000000	
23.80324300000000	42.22892400000000	759.24891100000002	54.84083400000000	0.32546300000000	0.00000000000000	0.10209000000000	0.00000000000000	0.00000000000000	0.00000000000000	0.00000000000000	0.00000000000000	0.00000000000000	0.00000000000000	24.58862400000000	0.00000000000000	0.00000000000000	0.00000000000000	0.00000000000000	
23.80492400000000	41.61760600000000	759.64231299999994	54.81588200000000	0.32453100000000	0.00000000000000	0.10205800000000	0.00000000000000	0.00000000000000	0.00000000000000	0.00000000000000	0.00000000000000	0.00000000000000	0.00000000000000	24.60659700000000	0.00000000000000	0.00000000000000	0.00000000000000	0.00000000000000	
23.80659400000000	41.01163300000000	759.95488799999998	54.78258100000000	0.32362500000000	0.00000000000000	0.10202100000000	0.00000000000000	0.00000000000000	0.00000000000000	0.00000000000000	0.00000000000000	0.00000000000000	0.00000000000000	24.62229400000000	0.00000000000000	0.00000000000000	0.00000000000000	0.00000000000000	
23.80824400000000	40.41032300000000	760.18619799999999	54.74065300000000	0.32274100000000	0.00000000000000	0.10198100000000	0.00000000000000	0.00000000000000	0.00000000000000	0.00000000000000	0.00000000000000	0.00000000000000	0.00000000000000	24.63550600000000	0.00000000000000	0.00000000000000	0.00000000000000	0.00000000000000	
23.80992300000000	39.81298600000000	760.33597699999996	54.68984200000000	0.32187900000000	0.00000000000000	0.10193700000000	0.00000000000000	0.00000000000000	0.00000000000000	0.00000000000000	0.00000000000000	0.00000000000000	0.00000000000000	24.64603300000000	0.00000000000000	0.00000000000000	0.00000000000000	0.00000000000000	
23.81158100000000	39.21893200000000	760.40413999999998	54.62991700000000	0.32103700000000	0.00000000000000	0.10188800000000	0.00000000000000	0.00000000000000	0.00000000000000	0.00000000000000	0.00000000000000	0.00000000000000	0.00000000000000	24.65367900000000	0.00000000000000	0.00000000000000	0.00000000000000	0.00000000000000	
23.81324900000000	38.62747400000000	760.39078400000005	54.56067300000000	0.32021200000000	0.00000000000000	0.10183600000000	0.00000000000000	0.00000000000000	0.00000000000000	0.00000000000000	0.00000000000000	0.00000000000000	0.00000000000000	24.65825700000000	0.00000000000000	0.00000000000000	0.00000000000000	0.00000000000000	
23.81491200000000	38.03793400000000	760.29619900000000	54.48193700000000	0.31940200000000	0.00000000000000	0.10178000000000	0.00000000000000	0.00000000000000	0.00000000000000	0.00000000000000	0.00000000000000	0.00000000000000	0.00000000000000	24.65959000000000	0.00000000000000	0.00000000000000	0.00000000000000	0.00000000000000	
23.81658000000000	37.44965000000000	760.12087099999997	54.39356500000000	0.31860700000000	0.00000000000000	0.10172000000000	0.00000000000000	0.00000000000000	0.00000000000000	0.00000000000000	0.00000000000000	0.00000000000000	0.00000000000000	24.65751400000000	0.00000000000000	0.00000000000000	0.00000000000000	0.00000000000000	
